<svg xmlns="http://www.w3.org/2000/svg" width="256" height="256"><path fill="#1976D2" fill-opacity=".016" fill-rule="evenodd" d="M0 128.004v128.004l128.25-.254 128.25-.254.254-127.75L257.008 0H0zm.485.496c0 70.4.119 99.053.265 63.672s.146-92.98 0-128S.485 58.1.485 128.5"/><path fill="#1976D2" fill-opacity=".147" fill-rule="evenodd" d="M102.211 10.75C97.083 22.716 96 27.635 96 38.968 96 49.899 95.978 50 93.636 50c-5.687 0-13.639-13.42-13.628-23 .005-4.939.508-6.237 4.932-12.729 3.849-5.649 4.391-6.879 2.479-5.626C84.728 10.408 77 19.713 77 21.19c0 1.733-1.75-.144-3.425-3.674C72.657 15.582 71.327 14 70.618 14s-5.075 2.315-9.703 5.145A6553 6553 0 0 1 42.5 30.351C27.95 39.169 23.384 44.15 18.072 57c-9.214 22.29-9.528 24.116-5.561 32.312 3.089 6.381 5.192 8.927 9.586 11.606 4.415 2.692 9.038 2.596 16.163-.334 6.807-2.8 8.112-1.887 6.482 4.533-.751 2.959-.6 5.021.646 8.832l1.626 4.971-3.891 7.79c-4.41 8.826-6.653 17.007-8.003 29.182-1.629 14.703 2.333 34.28 9.983 49.324 9.961 19.589 28.512 35.573 49.897 42.993 4.675 1.622 11.2 3.915 14.5 5.095 5.494 1.965 8.024 2.148 30 2.171 22.82.024 24.24-.086 28.888-2.23 2.688-1.24 8.988-3.89 14-5.888 5.011-1.999 10.993-4.922 13.292-6.496 2.299-1.573 4.503-2.861 4.897-2.861.862 0 8.246-5.921 14.315-11.478 5.502-5.038 13.962-16.337 18.467-24.664 6.17-11.405 12.55-35.212 11.448-42.718-.253-1.727-.169-3.14.187-3.14 1.208 0-.096-23.464-1.64-29.491-3.903-15.246-14.271-32.709-23.239-39.145-2.962-2.125-7.636-5.756-10.387-8.068-2.771-2.33-7.564-5.07-10.746-6.145-5.037-1.701-7.083-1.837-16.613-1.105-11.159.856-12.753 1.256-29.869 7.487-12.505 4.552-15.888 5.413-21.372 5.443-3.587.02-4.169-.222-3.238-1.343 1.601-1.93-.559-3.416-4.507-3.1-1.714.137-3.739-.145-4.5-.627-.761-.481-.933-.883-.383-.892 2.385-.039 7.653-6.2 7.378-8.629-.117-1.039 8.456-8.356 10.581-9.03 1.122-.356 3.763-1.734 5.867-3.061 3.242-2.047 4.538-2.306 8.5-1.704 2.571.391 7.149.78 10.174.866s6.625.629 8 1.208c1.375.578 5.305 1.298 8.734 1.598 5.849.512 6.172.431 5.237-1.316-1.23-2.298.605-3.429 6.851-4.225 5.341-.68 11.596-4.695 13.724-8.81.881-1.703 1.367-3.332 1.08-3.618s-2.676.521-5.309 1.795-5.468 2.374-6.302 2.444c-1.873.155-8.409 2.243-12.799 4.088-1.806.759-4.619 1.38-6.25 1.38-2.473 0-2.966-.403-2.966-2.427 0-3.112 4.635-6.876 7.736-6.283 1.754.335 2.038.143 1.229-.832-.79-.952-.256-1.665 2.145-2.863 1.759-.877 4.276-1.595 5.595-1.595 2.788 0 5.249-4.77 6.061-11.75.717-6.163-1.768-5.6-6.624 1.5-2.162 3.162-5.442 7.348-7.287 9.3s-3.017 3.101-2.605 2.55c1.44-1.92.725-2.6-2.731-2.6-2.98 0-3.57-.396-4.103-2.75-3.276-14.491-5.111-18.075-7.785-15.214-.753.805-1.858 3.496-2.456 5.98s-2.417 7.434-4.043 11c-2.706 5.932-2.944 6.188-2.795 3.004.156-3.333-.006-3.505-3.837-4.061-6.054-.88-10.326-3.566-17.76-11.167-6.255-6.395-7.04-6.888-10.5-6.602-3.691.306-3.737.362-3.5 4.31.132 2.2.268 7.375.301 11.5.091 11.258 1.581 19.976 4.005 23.438 1.178 1.684-.487.307-3.702-3.06s-6.365-5.931-7.002-5.697-1.452-.049-1.809-.628c-.358-.579-1.876-1.053-3.374-1.053-3.828 0-3.872-3.357-.142-10.875 1.641-3.307 2.986-6.376 2.989-6.819.004-.443.678-2.094 1.499-3.668s1.968-5.837 2.549-9.473c.939-5.883.863-6.752-.69-7.888-.961-.702-3.18-1.277-4.932-1.277-2.848 0-3.401.503-5.221 4.75m45.331-3.819c-.316.512.525 2.552 1.869 4.533s2.65 4.15 2.902 4.819c.732 1.948 3.619-2.394 3.655-5.498.02-1.684-.703-3.108-1.902-3.75-2.406-1.287-5.759-1.341-6.524-.104M42.437 35.486c-7.994 2.59-9.083 3.68-3.409 3.414 6.369-.298 16.065 1.597 20.968 4.098 4.613 2.353 4.663 2.349 5.159-.431.249-1.394-1.166-2.996-5.079-5.752-6.156-4.335-7.947-4.47-17.639-1.329m123.968 7.764L164.5 45.5l2.25-1.905c1.238-1.048 2.25-2.06 2.25-2.25 0-.8-.805-.209-2.595 1.905m4.675 43.469c-3.067 3.721-6.167 9.578-7.559 14.281-.407 1.377 1.111-.195 3.38-3.5 2.267-3.3 5.241-7.529 6.61-9.398 4.473-6.106 2.423-7.272-2.431-1.383m-11.253 6.789c-1.937 5.221-3.374 9.492-3.195 9.492.661 0 4.143-7.651 5.833-12.815 2.965-9.063 1.073-6.679-2.638 3.323m22.49-6.318c-1.2.581-3.402 2.985-4.893 5.344-1.491 2.358-3.658 4.781-4.817 5.382-1.972 1.024-1.946 1.058.393.533l2.5-.562-2.806 2.557c-1.543 1.406-2.536 2.556-2.208 2.556.329 0-.574 2.138-2.007 4.75s-1.789 3.642-.792 2.288c6.585-8.94 9.721-12.144 13.553-13.849 2.343-1.042 4.421-1.763 4.617-1.602.338.278-2.821 4.396-9.24 12.045-1.586 1.889-2.598 3.72-2.25 4.068s.633.146.633-.449 2.813-3.136 6.25-5.647c13.056-9.538 15.856-11.819 13.5-10.999-1.325.461-1.75.068-1.75-1.62 0-1.777-.279-1.999-1.373-1.09-1.897 1.574-5.056.327-3.604-1.423.774-.932.737-1.502-.129-2.037-.763-.472-.942-.321-.489.41.42.681.085 1.155-.815 1.155-.947 0-1.308-.57-.952-1.5.662-1.723-.225-1.806-3.321-.31m-31.292 9.006c-.66 2.917-1.407 6.204-1.66 7.304-.358 1.553-.255 1.665.459.5 1.237-2.019 3.529-11.98 2.901-12.608-.275-.275-1.04 1.887-1.7 4.804m53.225.209c-.315.509.013.551.75.095q1.31-.809.585.362c-.398.644-1.137.915-1.643.602-1.757-1.086-9.478 3.373-15.442 8.919l-6 5.58 7.25-3.905c3.988-2.148 7.25-3.532 7.25-3.075s1.012.642 2.25.412c1.238-.229 1.688-.15 1 .177s-1.25 1.186-1.25 1.909-4 3.948-8.889 7.167a3562 3562 0 0 0-10.75 7.096c-1.024.685 4.214-1.81 11.639-5.543s14.539-6.854 15.809-6.936c3.65-.236 8.028-2.535 8.538-4.483.544-2.082-.396-2.302-2.272-.532-1.087 1.025-1.238.755-.839-1.5.268-1.513.073-2.75-.434-2.75-.506 0-.681-.387-.389-.859.292-.473-.619-.734-2.024-.579-2.33.255-2.422.132-1.044-1.391 1.375-1.519 1.284-1.671-1.012-1.671-1.388 0-2.776.407-3.083.905M141.3 104c0 3.025.187 4.263.416 2.75s.229-3.987 0-5.5-.416-.275-.416 2.75m13.324 1.539c-.965 2.514-.681 3.163.498 1.136.584-1.004.851-2.036.593-2.293-.257-.258-.749.263-1.091 1.157m59.027 2.839c-1.697 1.541-3.91 2.876-12.884 7.771-4.253 2.32-7.558 4.394-7.343 4.608.215.215 1.669-.271 3.233-1.079 4.36-2.254 17.206-5.945 18.698-5.372.729.28 1.961.107 2.736-.383 1.204-.762 1.199-.895-.032-.908-1.033-.011-.892-.43.5-1.483 1.915-1.449 1.915-1.47-.059-1.57-1.978-.101-1.978-.111-.028-.873 1.76-.688 1.674-.828-.806-1.302-1.529-.292-3.335-.026-4.015.591m-72.399 6.122c.011 2.2.216 2.982.455 1.738s.23-3.044-.02-4-.446.062-.435 2.262m72.553 4.951c-3.132 1.301-7.102 2.675-8.821 3.053-1.72.377-2.926.888-2.68 1.133.432.433 17.653-2.309 20.696-3.294 1.237-.401 1.159-.737-.441-1.914-2.398-1.765-1.91-1.822-8.754 1.022m-40.4.799-1.905 2.25 2.25-1.905c1.238-1.048 2.25-2.06 2.25-2.25 0-.8-.805-.209-2.595 1.905m-14.514 2.545c-2.672.229-5.072 1.613-9.25 5.337-3.102 2.765-5.641 4.753-5.641 4.416s.672-2.221 1.493-4.186c1.835-4.39 1.232-5.588-2.163-4.297-1.43.543-5.043 1.158-8.029 1.365-3.094.215-6.19 1.064-7.194 1.974-.971.878-2.243 1.596-2.829 1.596-.585 0-1.334.704-1.664 1.563-.33.86-1.053 1.284-1.607.941-.554-.342-1.007.064-1.007.902s-1.013 2.05-2.25 2.694-3.039 1.993-4.004 2.998c-1.674 1.744-1.663 1.876.25 2.9 2.879 1.541 2.468 2.799-.746 2.285-1.883-.301-2.335-.147-1.433.489.989.698.543 1.251-1.789 2.217-1.709.707-3.742 2.192-4.516 3.298-1.216 1.735-1.207 2.402.06 4.853 2.408 4.656 5.103 5.798 12.428 5.267 3.575-.259 9.65-.629 13.5-.823s8.125-.818 9.5-1.387c2.573-1.064 4.933-1.846 6.25-2.07 1.203-.204 4.75-4.033 4.75-5.127 0-.55.679-1 1.51-1 .83 0 2.246-.86 3.147-1.912s2.159-1.712 2.797-1.467c1.511.579 9.332-7.764 8.793-9.381-.228-.682.092-1.24.71-1.24 1.412 0 1.068-8.068-.407-9.567-1.688-1.716-6.761-2.971-10.659-2.638m58.609 5.386c-2.2.54-7.15 1.333-11 1.764-6.988.782-6.982.784 3.816.919 10.264.129 14.684-.744 14.684-2.899 0-1.16-2.138-1.098-7.5.216m-24.687 3.502c.721.289 1.584.253 1.916-.079s-.258-.568-1.312-.525c-1.165.048-1.402.285-.604.604M209 137.946l-10.5.554 10.512 1.316c7.622.954 11.281 1.023 13.31.252 3.153-1.199 2.719-3.172-.631-2.872-1.205.107-6.916.445-12.691.75m-.5 8.048c12.246 2.304 15.5 2.442 15.5.655 0-.96-1.377-1.322-4.75-1.25-2.613.055-8.35-.211-12.75-.593l-8-.695zm-12.5 3.91c1.375.492 6.775 2.064 12 3.493 9.476 2.591 15.001 3.274 14.999 1.853-.002-.631-18.812-4.735-26.999-5.889l-2.5-.353zm-24.951 7.537c-.657.792-1.808 1.205-2.557.918s-4.429 1.264-8.177 3.449c-7.641 4.453-16.273 8.236-23.986 10.512-6.599 1.947-9.541 3.528-8.798 4.73.327.529-1.102 1.01-3.222 1.086-2.529.091-3.016.287-1.451.584 6.891 1.308 26.51-4.889 36.786-11.618 5.868-3.843 14.407-10.982 13.228-11.06-.345-.023-1.165.606-1.823 1.399M196 156.397c0 1.212 22.415 7.588 23.359 6.644 1.191-1.191.779-1.344-10.859-4.022-4.95-1.14-9.787-2.316-10.75-2.613s-1.75-.301-1.75-.009m-8.5 2.829c4.098 2.937 19.451 11.856 22.86 13.28 1.943.812 3.769 1.095 4.057.629.288-.467-5.648-3.95-13.191-7.741-15.001-7.541-16.717-8.312-13.726-6.168m4.31 10.977c3.236 3.578 16.051 12.269 16.875 11.445.937-.936-.354-2.014-6.185-5.166-2.75-1.487-6.8-4.082-9-5.768-3.459-2.65-3.688-2.719-1.69-.511m2.69 12.157c5.846 5.51 9.5 7.933 9.5 6.3 0-.424-11.556-9.677-14.399-11.529-1.155-.752 1.049 1.6 4.899 5.229m-11.505-.86c7.988 8.961 13.046 13.792 13.727 13.112.367-.367-.208-1.472-1.278-2.456-1.069-.983-5.31-4.908-9.425-8.722-6.169-5.718-6.699-6.057-3.024-1.934M181 189.378c0 .207.787.995 1.75 1.75 1.586 1.243 1.621 1.208.378-.378-1.307-1.666-2.128-2.195-2.128-1.372m-6.495 8.122c2.023 3.85 4.134 7.45 4.692 8 1.508 1.486-4.762-10.672-6.703-13-.917-1.1-.013 1.15 2.011 5m10.369-3c1.45 2.96 4.058 6.15 4.089 5 .015-.55-1.119-2.35-2.521-4s-2.107-2.1-1.568-1M163 212.941c0 .518.445 1.216.989 1.552.566.35.734-.051.393-.941-.665-1.732-1.382-2.049-1.382-.611"/><path fill="#1976D2" fill-opacity=".346" fill-rule="evenodd" d="M65.5 25c-.626 5.392-.425 6.452 2.007 10.603 2.455 4.188 2.64 5.198 2.02 10.994-.376 3.51-1.123 6.654-1.66 6.985-.538.332-3.402-1.689-6.366-4.492-8.304-7.854-13.942-9.349-14.741-3.908-.952 6.486 2.622 13.582 12.123 24.068 2.103 2.321 2.22 2.75.754 2.75-4.658 0-12.446-6.888-15.17-13.417-.898-2.155-1.634-5.886-1.634-8.291 0-3.786-.246-4.296-1.832-3.792-1.008.32-2.152.065-2.542-.566-1.344-2.176-2.296 1.233-1.808 6.481C37.42 60.683 32.866 66 25.016 66c-3.381 0-8.303 2.628-9.994 5.337-1.443 2.309-1.038 2.626 6.17 4.838 2.919.895 8.233 2.56 11.808 3.7l6.5 2.073-5.5-.57c-3.025-.313-8.65-1.619-12.5-2.901-8.249-2.749-10.076-1.966-9.665 4.14.481 7.145 4.214 10.869 13.228 13.198 2.697.697 5.006.47 9.5-.932 3.265-1.018 6.286-1.743 6.712-1.609.653.204-2.527 1.387-17.275 6.428-1.188.406-1.084.684.5 1.335 3.489 1.435 7.893 1.021 11.31-1.063 1.821-1.11 3.766-1.736 4.324-1.391s2.027-.325 3.266-1.489l2.251-2.115 1.129 2.261c1.849 3.699 3.962 12.147 3.442 13.76-.265.825-1.143 2.259-1.95 3.187-.808.928-1.184 2.147-.837 2.709.348.561-1.005 4.271-3.005 8.243-10.783 21.412-11.601 48.72-2.152 71.861 8.071 19.768 22.476 36.002 40.222 45.329 5.722 3.008 25.688 10.256 32.383 11.757 7.2 1.613 44.728 1.269 50.117-.46 16.111-5.17 41.001-18.198 39.477-20.664-.344-.556-.255-.947.199-.868 2.124.369 3.324-.228 3.324-1.653 0-.857.45-1.281 1-.941s1 .218 1-.272 1.119-1.489 2.488-2.221c1.826-.978 2.212-1.664 1.451-2.58-.725-.874-.675-1.472.167-1.992.763-.472.942-.321.489.41-.392.635-.345 1.155.105 1.155 1.392 0 3.363-3.812 2.175-4.208-.582-.194-.085-1.456 1.112-2.822 1.191-1.358 1.859-1.874 1.485-1.146-.564 1.096-.32 1.098 1.423.009 1.158-.723 2.105-1.881 2.105-2.574s.402-1.259.893-1.259 1.143-.652 1.449-1.449c.391-1.018.076-1.265-1.057-.83q-1.612.618-.89-.551c.398-.644 1.345-1.17 2.105-1.17s1.654-.441 1.987-.979c.83-1.344-1.359-5.218-2.537-4.49-.523.323-.95.351-.95.063s.954-1.034 2.121-1.659c1.166-.624 1.871-.731 1.566-.237s-.142 1.551.364 2.35c.702 1.11.926.864.949-1.048.025-2.035.226-2.221 1.081-1 .815 1.164.903.98.394-.822-.435-1.542-.068-2.971 1.095-4.256.963-1.064 1.566-2.09 1.341-2.281-.226-.19-1.311-.896-2.411-1.569-1.489-.911-1.553-1.084-.25-.679 1.14.355 1.75.012 1.75-.983 0-.881.478-1.232 1.13-.83.69.427.938.158.637-.691-.271-.764.151-2.662.937-4.219.787-1.556 1.352-4.031 1.257-5.5-.095-1.468-.091-2.895.01-3.17s.328-1.175.506-2c.584-2.703 2.461-7 3.057-7 .321 0 .263.52-.129 1.155-.428.692-.276.883.379.478.601-.371.939-1.477.75-2.457s.312-4.233 1.113-7.229c2.078-7.77 2.732-21.945 1.374-29.768-2.25-12.958-14.987-36.464-21.952-40.51-1.733-1.007-6.501-4.525-10.595-7.819-4.093-3.293-7.9-5.705-8.458-5.36-.559.346-1.016.172-1.016-.386 0-.557-1.58-1.31-3.511-1.672s-3.762-1.065-4.069-1.562c-.307-.496-1.012-.622-1.567-.279s-5.889 1.016-11.852 1.495c-12.108.974-15.164 1.998-41.459 13.895-21.421 9.692-27.063 11.663-34.042 11.896-3.3.11-8.362.42-11.25.687-6.171.573-7.072-1.057-2.181-3.946 1.688-.997 2.852-2.031 2.586-2.297s-3.223-.47-6.57-.454S81 92.698 81 92.456s2.518-1.86 5.597-3.597c3.078-1.738 7.141-4.779 9.029-6.759 13.079-13.716 14.395-14.837 21.261-18.116l7.176-3.428-2.281-1.756C118.857 56.55 110 56.286 110 58.45c0 .798.787 1.949 1.75 2.559 1.387.878.816 1.015-2.75.66-2.475-.246-5.238-.752-6.141-1.124-1.075-.442-2.849.385-5.14 2.397-2.899 2.545-3.604 2.801-4.106 1.493C92.828 62.389 94.65 59 96.535 59c3.407 0-.304-4.584-6.072-7.5-2.725-1.378-4.763-3.495-6.551-6.806-3.029-5.608-5.55-8.389-6.628-7.311-.421.42-.815 3.093-.876 5.94C76.292 48.643 72.563 59 70.763 59c-1.413 0-.228-5.901 2.41-12 .832-1.925 1.181-3.725.776-4s-.672-3.612-.593-7.416c.099-4.752-.247-7.047-1.106-7.334-.687-.229-1.25-.809-1.25-1.289s-1.081-2.465-2.402-4.412l-2.403-3.54zm57.412-5.872c-.049.205-.276 4.286-.505 9.07s-.865 9.876-1.412 11.315c-1.454 3.823-1.215 12.16.439 15.359 2.535 4.903 3.611 5.274 10.154 3.501 12.518-3.393 16.758-3.886 26.412-3.069 15.102 1.277 22.317 1.244 22.767-.106.22-.659 1.15-1.212 2.066-1.23.917-.017 2.567-.722 3.667-1.566 1.903-1.46 1.855-1.5-1-.835-1.65.385-4.463 1.291-6.25 2.015-2.153.872-3.25.955-3.25.247 0-.69-2.152-.914-6.062-.631-5.092.368-5.708.249-3.848-.746 1.402-.75 1.749-1.339.947-1.606-.805-.269.22-2.044 2.822-4.884 2.248-2.454 4.1-4.799 4.114-5.212.069-1.94-2.664-.257-8.31 5.116-5.601 5.331-9.452 8.134-11.177 8.134-.355 0 1.65-2.576 4.456-5.724s5.546-7.375 6.089-9.393c1.683-6.247-.827-8.976-4.51-4.907-.983 1.087-2.14 1.76-2.569 1.494-.74-.457-1.416 1.083-5.717 13.03-1.66 4.609-2.032 4.977-4.768 4.711-1.632-.158-5.217.383-7.967 1.204-3.285.98-4.456 1.079-3.413.288 2.324-1.763 4.154-5.633 3.486-7.374-.485-1.264-1.367-1.056-5.327 1.255-5.299 3.092-7.167 5.077-7.214 7.666-.032 1.773-2.032 2.555-2.032.795 0-.525 1.826-5.105 4.058-10.177 4.521-10.274 4.598-12.881.612-20.764-1.83-3.618-6.429-8.365-6.758-6.976M27.035 45.934c-1.421 2.656-1.301 6.063.215 6.081.966.012.975.191.04.785-.873.555-.664 1.11.75 1.993 1.865 1.165 1.96.933 1.96-4.785 0-6.094-1.086-7.585-2.965-4.074m168.392 1.545c-1.06.801-1.477 1.465-.927 1.474 1.486.024 4.026-1.761 3.398-2.388-.299-.3-1.411.112-2.471.914M180 78.807c-6.436 3.285-9.341 4.242-11.965 3.942-2.465-.283-4.465.282-6.935 1.958-1.91 1.296-4.222 2.229-5.14 2.074-.917-.154-2.874 1.152-4.348 2.904-3.007 3.573-6.534 4.575-8.263 2.348-2.279-2.936-3.65 6.322-2.92 19.717.579 10.618.464 12.25-.862 12.25-.854 0-1.796-1.213-2.135-2.75-1.037-4.701-1.271-4.874-1.353-1-.135 6.406-1.895 4.168-5.111-6.5-3.187-10.568-5.532-16.718-4.481-11.75.291 1.375 1.436 5.65 2.544 9.5 2.893 10.047 3.434 13.5 2.114 13.5-.614 0-2.479-2.7-4.145-6-4.858-9.623-4.841-7.185.023 3.22 1.027 2.199 1.028 3.014.002 4.25-1.873 2.257-2.426 1.955-4.969-2.72-3.666-6.739-10.29-16.849-10.742-16.397-.227.227.777 2.153 2.232 4.28 2.626 3.839 9.454 16.774 9.454 17.909 0 .326-.84.326-1.866.001-1.556-.494-1.786-.173-1.384 1.932.815 4.261-1.324 2.884-8.893-5.725-7.698-8.757-8.064-9.135-11.85-12.25-1.338-1.1 1.232 2.05 5.71 7s9.081 10.205 10.228 11.678l2.086 2.677-2.03.645c-1.116.354-1.791 1.031-1.499 1.503 1.039 1.682-1.192 1.87-4.074.343-15.942-8.446-27.012-13.505-32.202-14.716-6.342-1.48-8.896-.467-2.976 1.18 11.055 3.076 37.901 14.941 41.145 18.185.673.673-1.032 1.005-5.164 1.005-5.072 0-6.066.267-5.593 1.5.317.825.092 1.5-.5 1.5-.591 0-.838.617-.549 1.371s-.203 1.651-1.095 1.993-1.364 1.037-1.05 1.545.15 2.029-.364 3.38c-.63 1.657-.567 2.824.193 3.584.62.62.7 1.134.177 1.142s-.28.439.538.957c1.237.781.899 1.583-1.995 4.734-3.183 3.466-3.092 3.426 1.049-.456 5.042-4.727 6.634-5.386 4.829-2-1.121 2.104-1.08 2.153.619.75 2.109-1.742 6.51-2.093 6.51-.519 0 .591-.711 2.187-1.58 3.546l-1.58 2.473 2.08-2.5c4.552-5.472 4.451-5.387 4.872-4.124.311.932.728.937 1.829.023 2.233-1.853 2.528-.574.92 3.985-.815 2.308-1.124 3.976-.688 3.707s1.388-2.29 2.113-4.489c1.812-5.489 4.318-6.427 3.572-1.337l-.547 3.735 1.254-3.178c2.002-5.07 2.745-5.003 2.891.261.075 2.704.314 3.792.53 2.417.94-5.967 1.425-7 3.287-7 1.321 0 2.043.853 2.331 2.75l.416 2.75.15-2.75c.258-4.738 3.15-2.597 3.15 2.332 0 1.055.36 1.918.799 1.918s.616-1.575.391-3.5c-.25-2.142.022-3.5.701-3.5.61 0 1.162.787 1.227 1.75s.455.4.867-1.25l.749-3 .762 3.271c1.111 4.766 2.081 4.709 1.784-.105l-.257-4.166 1.99 4 1.99 4-.63-4.25c-.496-3.355-.32-4.25.839-4.25.807 0 1.98 1.125 2.606 2.5.627 1.375 1.584 2.5 2.127 2.5s.082-1.535-1.026-3.412c-2.598-4.403-.807-5.708 2.219-1.616 1.231 1.665 2.643 3.028 3.139 3.028.495 0-.264-1.385-1.688-3.077-3.248-3.859-3.237-4.543.082-5.376 1.907-.479 3.468-.081 5.459 1.391 4.48 3.312 4.733 2.345.37-1.415-4.668-4.023-2.884-4.78 3.54-1.503 4.673 2.385 5.364 1.286.818-1.301-4.303-2.45-2.852-3.334 2.172-1.324 2.263.906 3.83 1.187 3.483.626-.347-.562-1.193-1.021-1.881-1.021s-2.123-.667-3.191-1.483c-1.724-1.316-1.41-1.327 2.809-.097 2.613.761 4.75.978 4.75.482s-.562-.922-1.25-.947-2.6-.688-4.25-1.473c-2.902-1.382-2.804-1.415 3-1.002 5.967.424 5.977.42 1.75-.669-5.044-1.3-5.561-2.785-1-2.874 2.95-.058 3.042-.147 1-.968-3.635-1.461-2.592-2.143 2.183-1.427 3.288.493 5.025.251 6.723-.938 1.62-1.136 4.544-1.604 10.007-1.604 10.986 0 11.538 2.22.837 3.363-1.925.206-4.625.855-6 1.442-2.126.909-1.521 1.078 4.05 1.132 6.102.059 8.95 1.132 8.95 3.372 0 .5-3.375.739-7.5.531s-7.5-.033-7.5.391c0 .423 1.86.769 4.134.769 5.457 0 11.866 1.976 11.866 3.658 0 1.738-4.037 1.708-10.75-.079-4.511-1.201-5.25-1.2-5.25.012 0 .879 1.061 1.409 2.822 1.409 3.963 0 11.91 2.86 12.545 4.515.914 2.381-2.759 2.586-8.84.494-6.385-2.197-7.528-2.388-7.526-1.259.001.412 2.664 1.532 5.917 2.488 6.031 1.772 9.555 4.188 8.53 5.846-.778 1.259-5.082.149-10.186-2.626-2.544-1.383-4.484-1.908-4.851-1.315-.336.545-.454 1.104-.261 1.242.192.139 2.459 1.556 5.038 3.149 5.483 3.389 8.074 7.435 4.497 7.025-1.202-.137-3.943-1.449-6.091-2.915s-4.173-2.374-4.5-2.018.012.863.753 1.127c4.014 1.426 11.366 10.367 9.807 11.926-.548.549-7.634-3.553-10.404-6.022-3.683-3.283-2.566-1.347 2.25 3.898 2.475 2.696 4.5 5.447 4.5 6.114 0 2.653-2.047 2.152-6.908-1.69-5.602-4.428-6.641-3.869-2.298 1.236 2.876 3.382 6.206 8.328 6.206 9.218 0 1.445-3.963-1.32-7.339-5.12-4.468-5.031-7.015-4.777-3.134.311 3.546 4.65 4.083 8.983 1.206 9.735-1.18.309-2.184.467-2.23.351-.601-1.504-5.832-7.71-6.499-7.71-.492 0 .206 2.488 1.551 5.529 2.778 6.281 2.82 6.471 1.423 6.471-.562 0-2.257-1.948-3.767-4.328-3.278-5.169-6.136-5.354-3.095-.2 1.179 1.999 1.582 3.597.998 3.958-.539.333-1.782-.753-2.763-2.412-3.049-5.163-3.188-3.309-.196 2.623 3.665 7.266 3.718 8.714.264 7.14-1.42-.647-3.649-3.225-4.954-5.729-2.925-5.613-3.11-4.241-.465 3.448 2.382 6.922 2.483 8.5.545 8.5-2.504 0-6.165-4.573-7.512-9.383-1.467-5.24-3.649-6.484-2.397-1.367.437 1.787.81 5.05.829 7.25.03 3.383-.257 3.95-1.859 3.673-1.041-.18-2.222.206-2.624.857-.745 1.204-2.833-6.125-3.215-11.28-.384-5.195-1.767-2.748-1.767 3.128 0 3.784-.493 6.286-1.383 7.025-1.72 1.428-2.585-.418-2.687-5.735-.161-8.371-1.627-7.377-2.302 1.561-.935 12.391-.387 14.322 3.976 14.012 1.866-.133 3.393-.482 3.394-.777.001-.294.789-.571 1.752-.615s3.55-.31 5.75-.591 4.794-.097 5.764.408c1.271.663 1.691.558 1.5-.373-.167-.82.56-1.178 1.986-.98 1.772.246 2.253-.179 2.265-2 .013-1.86.205-2.019.985-.813.533.825.976 1.093.985.595.008-.498.87-.131 1.916.815 1.248 1.129 2.127 1.354 2.56.652.464-.75 1.298-.726 2.802.079 1.606.859 2.237.86 2.523.002.515-1.547 3.206-1.459 3.244.107.017.688.495.453 1.062-.521s1.421-1.53 1.897-1.236c.477.295 1.169-.416 1.538-1.579.476-1.497.983-1.804 1.738-1.049.754.754 1.438.564 2.339-.65 1.125-1.515 1.544-1.55 3.585-.304 2.118 1.293 2.197 1.272.939-.25-.755-.914-1.205-1.698-1-1.744.204-.046 1.474-.203 2.821-.348s2.628-.801 2.847-1.458c.302-.904.782-.881 1.975.097 1.367 1.121 1.499.994.996-.959-.319-1.239-.172-2 .326-1.691.499.308.914-.254.922-1.249.012-1.435.198-1.521.899-.413 1.167 1.843 4.128.658 4.803-1.922.414-1.584.823-1.771 1.905-.873 1.049.871 1.378.836 1.378-.145 0-.709.272-1.017.605-.684s1.622-.493 2.865-1.834c1.242-1.341 2.797-2.438 3.454-2.438s.958-.382.669-.849.585-1.814 1.941-2.994c1.356-1.179 2.466-2.566 2.466-3.083s.9-1.225 2-1.574 2-1.279 2-2.067.702-1.433 1.559-1.433 1.323-.382 1.035-.849.261-1.704 1.222-2.75c.96-1.045 3.165-4.429 4.898-7.518 2.349-4.185 2.864-5.905 2.019-6.75s-.7-1.133.567-1.133c1.033 0 1.7-.784 1.7-2 0-1.1.563-2.007 1.25-2.015.846-.011.774-.317-.222-.947-1.262-.797-1.227-1.025.244-1.589.944-.362 1.487-1.03 1.206-1.485-.281-.454-.005-1.138.612-1.52.707-.436.759-.926.143-1.319-.639-.407-.629-1.497.029-3.125.556-1.375 1.128-3.4 1.271-4.5.38-2.922.688-8.92.489-9.5-.095-.275-.291-2.975-.436-6-.414-8.657-3.371-19.931-6.031-23-.715-.825-2.12-3.264-3.122-5.421-1.003-2.156-4.29-6.348-7.305-9.316-5.257-5.174-19.111-14.197-24.198-15.761-1.336-.411-2.88-1.076-3.43-1.479s-2.35-1.143-4-1.644c-2.562-.778-4.241-.277-11.5 3.428M40.813 82.683c.721.289 1.584.253 1.916-.079s-.258-.568-1.312-.525c-1.165.048-1.402.285-.604.604M133.1 100.55c.055 2.722.46 6.075.9 7.45.796 2.484.802 2.481 1.08-.5.433-4.654-.116-9.902-1.146-10.95-.581-.59-.896.923-.834 4m34.829.426c-1.965 1.039-4.161 2.599-4.882 3.467-1.189 1.433-1.427 1.419-2.57-.144-1.776-2.429-3.926-.436-5.965 5.528-1.532 4.48-5.383 12.294-5.47 11.098-.023-.316 1.091-3.907 2.477-7.98 2.64-7.764 2.648-11.574.018-8.873-.765.786-1.833 3.003-2.373 4.928l-.984 3.5-.09-4.281c-.063-2.992-.585-4.472-1.735-4.913-3.074-1.18-4.452 2.515-4.142 11.105.316 8.733 2.18 11.456 3.358 4.903 1.131-6.293 2.513-7.386 1.788-1.413-.502 4.129-.369 5.223.566 4.645.672-.415.289 1.074-.851 3.31-3.216 6.303-2.493 6.81 2.738 1.917 5.188-4.853 9.006-7.288 9.949-6.345.325.325 1.524-.247 2.665-1.27s2.949-2.171 4.018-2.552c1.898-.676 1.9-.643.089 1.357-2.978 3.291-1.173 3.315 1.977.027 1.575-1.645 3.555-2.99 4.4-2.99 1.088 0 .891.451-.68 1.551-1.989 1.394-4.894 5.449-3.903 5.449 1.135 0 7.516-5.824 6.974-6.365-.349-.349.419-.635 1.707-.635h2.341l-2.184 2.324c-1.201 1.278-1.842 2.701-1.424 3.161.417.459.243.541-.387.181s-2.205.227-3.5 1.306l-2.354 1.96 3-.851c1.65-.469 6.102-2.68 9.894-4.914l6.894-4.062-3.621-1.727c-2.714-1.294-3.361-2.042-2.58-2.983.76-.915.511-1.54-.916-2.303-1.526-.817-2.511-.612-4.472.93-1.383 1.088-3.301 1.978-4.262 1.978-1.653 0-1.655-.102-.027-1.901 2.966-3.277-.102-3.403-3.227-.133-3.561 3.726-5.93 4.104-3.62.578.885-1.351 1.341-2.89 1.014-3.42-.328-.529 1.086-2.349 3.142-4.044 4.158-3.427 2.698-4.005-2.79-1.104m-9.057 12.774c-1.243 1.586-1.208 1.621.378.378.963-.755 1.75-1.543 1.75-1.75 0-.823-.821-.294-2.128 1.372m-75.322 3.112c.523.474 3.883 2.42 7.469 4.325 3.585 1.905 7.86 4.264 9.5 5.243l2.981 1.779-3-2.663c-1.65-1.465-6.026-4.212-9.725-6.104-6.626-3.391-9.088-4.27-7.225-2.58m99.749 4.253c-15.715 8.204-15.46 9.175.688 2.627 7.013-2.843 10.599-4.83 10.824-5.997.501-2.604-.797-2.224-11.512 3.37m8.701 1.332c-4.52 1.318-17.55 6.769-18.535 7.755-.891.891 20.931-4.809 23.334-6.095 1.241-.664 1.993-1.635 1.67-2.157-.713-1.154-.84-1.144-6.469.497m-4.5 6.102c-3.85 1.293-7.787 2.373-8.75 2.401s-1.75.419-1.75.869c0 .888 11.286-.201 19.75-1.904 5.308-1.068 6.56-2.198 3.668-3.308-2.571-.987-5.507-.545-12.918 1.942m-81.067 2.342c.713 1.154 4.567 3.483 4.567 2.759 0-.231-1.18-1.193-2.623-2.139s-2.318-1.224-1.944-.62m-41.023 1.255c-1.063 1.719 5.85 3.075 10.493 2.057 3.176-.696 2.954-.813-3.323-1.759-3.7-.558-6.927-.692-7.17-.298m2.91 11.233c-7.531 1.176-10.711 2.625-5.737 2.615 2.85-.005 11.413-1.388 18.417-2.972 3.486-.789 3.482-.792-1-.778-2.475.008-7.731.519-11.68 1.135m27.493 2.304c.721.289 1.584.253 1.916-.079s-.258-.568-1.312-.525c-1.165.048-1.402.285-.604.604m71.202 9.46c-11.881 9.232-25.869 14.68-45.354 17.661-7.007 1.073-11.579 3.678-9.718 5.539 1.378 1.378 14.335 1.2 21.557-.295 7.675-1.589 17.263-5.388 24.95-9.885 6.349-3.715 15.985-12.194 17.771-15.639.578-1.113.693-1.69.256-1.283s-1.294.326-1.906-.182c-.734-.609-3.304.78-7.556 4.084M78.5 151.975c-1.208.504.377.62 4 .292 3.3-.299 6.188-.706 6.417-.905.852-.74-8.492-.19-10.417.613M159 153.5c1.292 1.375 2.574 2.5 2.849 2.5s-.557-1.125-1.849-2.5-2.574-2.5-2.849-2.5.557 1.125 1.849 2.5m-92 0c-1.925.741-4.625 1.389-6 1.439-2.883.106-5.743 1.651-4.8 2.594 1.18 1.18 11.554-1.603 13.343-3.581 2.031-2.243 2.084-2.234-2.543-.452m20 8.5c-.825.533-1.05.969-.5.969s1.675-.436 2.5-.969 1.05-.969.5-.969-1.675.436-2.5.969m28.162 4.543c-1.675 3.677-1.355 4.462.456 1.119.846-1.562 1.351-3.026 1.123-3.255-.229-.228-.939.733-1.579 2.136M59 166.177c-1.375.578-1.964 1.253-1.31 1.5.655.248 2.455-.236 4-1.074 3.169-1.717 1.146-2.038-2.69-.426m42.872 1.573c-1.243 1.586-1.208 1.621.378.378.963-.755 1.75-1.543 1.75-1.75 0-.823-.821-.294-2.128 1.372M81.5 176.177c-9.725 8.101-14.5 13.206-14.5 15.504 0 4.258 4.434 1.209 13.351-9.181l5.149-6-5.421 4.806c-9.219 8.174-10.054 7.23-1.117-1.263 4.654-4.424 8.254-8.04 8-8.037-.254.004-2.712 1.881-5.462 4.171m-19.838-1.559c-1.562.846-2.593 1.784-2.292 2.085.3.301 2.028-.402 3.838-1.561 3.794-2.43 2.671-2.809-1.546-.524m7.355 4.405c-6.266 4.711-9.484 8.391-5.383 6.154 2-1.091 13.201-11.106 12.366-11.057-.275.016-3.417 2.223-6.983 4.903m27.767 1.727C92.714 185.417 80 204.255 80 205.618c0 3.516 2.873.062 9.25-11.123 3.713-6.511 7.495-12.661 8.405-13.667.91-1.005 1.43-1.828 1.155-1.828s-1.187.787-2.026 1.75M79.25 192.649c-3.987 4.172-7.25 7.982-7.25 8.468 0 1.996 2.033.615 5.691-3.867 4.561-5.589 9.538-12.264 9.11-12.218-.166.018-3.564 3.446-7.551 7.617m13.451 4.937c-3.29 4.956-5.701 9.692-5.701 11.2 0 1.912.297 2.317 1.108 1.506C89.147 209.253 99.169 189 98.644 189c-.133 0-2.808 3.864-5.943 8.586m8.545 1.696C95.844 209.997 94.1 215 95.769 215c1.493 0 2.726-2.03 4.253-7 .761-2.475 2.645-7.609 4.189-11.408 1.543-3.8 2.667-7.048 2.496-7.218s-2.627 4.289-5.461 9.908m8.983-.782c-1.202 4.4-2.478 9.47-2.835 11.266-.523 2.624-.92 3.042-2.022 2.128-1.067-.886-1.372-.778-1.372.484 0 .892.45 1.622 1 1.622s1 1.153 1 2.563c0 1.842.492 2.513 1.75 2.385.963-.098 1.975-.077 2.25.046 1.652.743 7.774.656 9.25-.131 1.141-.608 1.75-.573 1.75.102 0 .569.9 1.035 2 1.035s2 .45 2 1 .675 1 1.5 1 1.5-.505 1.5-1.122c0-.818.376-.811 1.383.025 1.077.894 1.532.76 2.055-.601.406-1.059.076-2.185-.838-2.852-1.598-1.169-2.367-5.445-2.599-14.45-.177-6.869-1.789-4.049-2.001 3.5-.176 6.252-.96 8.05-3.5 8.022-1.889-.021-1.98-.577-1.648-10.022.193-5.5.049-9.706-.32-9.347s-1.343 3.284-2.164 6.5c-3.594 14.072-3.364 13.494-4.792 12.066-2.2-2.2-2.773-7.229-1.539-13.503 1.841-9.358.601-10.535-1.808-1.716m115.85-.917c.048 1.165.285 1.402.604.605.289-.722.253-1.585-.079-1.917s-.568.258-.525 1.312m-116 13c.048 1.165.285 1.402.604.605.289-.722.253-1.585-.079-1.917s-.568.258-.525 1.312m-9.62.662c-.913 2.38-.18 3.799 1.192 2.305.683-.744.806-1.81.304-2.624-.688-1.112-.969-1.052-1.496.319"/><path fill="#1976D2" fill-opacity=".921" fill-rule="evenodd" d="M151.912 50.732C150.766 53.746 150.773 54 152 54c.55 0 1-.527 1-1.171s.677-1.919 1.504-2.834c1.343-1.483 1.333-1.662-.088-1.662-.876 0-2.003 1.08-2.504 2.399M161 52c-.819 1.531-.76 2 .251 2 .726 0 1.32-.9 1.32-2s-.112-2-.25-2-.732.9-1.321 2m-39.965.139c-.019.902.85 2.702 1.932 4l1.966 2.361.034-2.417c.018-1.329-.281-2.102-.665-1.718s-1.268-.329-1.965-1.584c-.927-1.671-1.276-1.842-1.302-.642m9.62 2.69c-2.004 2.215-2.1 3.171-.316 3.171.737 0 1.853-1.125 2.479-2.5 1.335-2.93.2-3.282-2.163-.671m36.614-.136c.973.254 2.323.237 3-.037s-.119-.481-1.769-.461-2.204.244-1.231.498M53.24 58.16c-.879.879-.18 2.329 2.894 6.001 3.055 3.648 6.063 5.782 12.21 8.661l8.156 3.82 8.367-3.271c4.602-1.8 8.578-3.483 8.836-3.741 1.14-1.139-3.795-2.677-5.466-1.703-1.59.926-1.567 1.017.263 1.074 1.957.061 1.959.094.094 1.505-1.049.794-4.302 2.139-7.231 2.991l-5.324 1.548-6.819-3.434c-5.589-2.815-7.49-4.443-10.53-9.023-2.041-3.073-3.841-5.588-4-5.588-.16 0-.812.522-1.45 1.16m62.454.484c.656.267.918 1.203.581 2.081-.492 1.282-.136 1.469 1.806.949 1.331-.356 3.094-.667 3.919-.692 1.147-.035 1.043-.392-.441-1.514-1.068-.807-3.093-1.432-4.5-1.389s-2.022.297-1.365.565m-15.983 4.123c-1.988 2.197-2.311 5.677-.461 4.969.688-.263 3.923-1.321 7.191-2.35l5.94-1.871-3.44-.671c-1.893-.368-4.359-.962-5.48-1.318-1.352-.43-2.616-.012-3.75 1.241M187.5 73c-1.1.473-5.052.891-8.782.93-8.301.086-14.368 2.054-34.718 11.261-8.525 3.858-19.72 8.775-24.878 10.929-9.312 3.888-28.038 9.048-37.622 10.367-11.793 1.623-32.5 7.426-32.5 9.107 0 .288.45.246 1-.094s1-.168 1 .382-.438 1.271-.973 1.601c-2.497 1.543-8.373 18.706-7.782 22.73.225 1.533-.038 2.787-.585 2.787s-.734.259-.418.575c.316.317.134 2.004-.404 3.75-1.446 4.686-1.049 20.427.66 26.175.817 2.75 1.253 3.65.968 2-1.604-9.277-1.675-20.841-.165-26.78A420 420 0 0 0 45.077 137c1.254-5.773 4.198-12.418 6.539-14.759.761-.761 1.384-1.828 1.384-2.371 0-.544.518-.668 1.152-.276.633.391 1.648.032 2.255-.798.64-.875 3.482-1.77 6.757-2.127C72.871 115.611 77 114.776 77 113.872c0-.48 1.881-.872 4.179-.872 5.09 0 10.821-1.943 10.821-3.669 0-.878.663-1.021 2.159-.468 2.936 1.086 6.841.222 6.841-1.515 0-1.033.475-1.17 1.75-.501 2.12 1.11 6.658-.377 5.73-1.879-.421-.681.232-.827 1.864-.418 3.691.926 6.656-.329 6.656-2.817 0-1.62.28-1.853 1.161-.972.882.882 1.845.758 4-.515 1.562-.923 2.839-2.193 2.839-2.823 0-.664.99-.956 2.357-.695 1.675.32 2.939-.289 4.367-2.105 1.106-1.405 2.272-2.294 2.591-1.975.701.701 7.685-3.481 7.685-4.602 0-.435 1.732-1.067 3.85-1.406 2.117-.339 5.138-1.629 6.712-2.868 1.575-1.238 3.657-2.117 4.626-1.953s3.236-.354 5.037-1.151 8.556-2.656 15.011-4.132 11.994-3.1 12.309-3.609c.662-1.072.615-1.07-2.045.073M67 77.383c0 .211 1.111.596 2.47.856 1.358.26 2.232.087 1.941-.383-.512-.829-4.411-1.246-4.411-.473m-4.217 2.3c-1.406.369-1.506.787-.556 2.309 1.057 1.693 1.412 1.729 3.967.408 2.932-1.516 3.906-3.036 1.306-2.038-.825.316-1.5.139-1.5-.393 0-1.007-.352-1.038-3.217-.286M36.32 85.348c-2.3.634-4.512 1.49-4.917 1.902-1.098 1.118 8.822.807 19.597-.614l9.5-1.253L55 84.7c-7.532-.935-13.714-.72-18.68.648m12.665 4.698c-1.367 1.05-2.035 1.905-1.485 1.9 1.323-.013 4.978-2.802 4.412-3.367-.243-.243-1.56.417-2.927 1.467m-6.172 4.637c.721.289 1.584.253 1.916-.079s-.258-.568-1.312-.525c-1.165.048-1.402.285-.604.604M31.5 98c-1.63.701-1.688.872-.309.93.93.038 1.969-.38 2.309-.93.711-1.15.676-1.15-2 0m136.5 3.591c-2.475 1.411-5.287 3.276-6.25 4.143-1.08.972-1.75 1.134-1.75.421 0-1.877-2.842-1.318-3.965.779-1.306 2.441-1.319 3.359-.035 2.566 1.673-1.034 1.127.464-1.391 3.817-2.176 2.896-9.609 16.93-9.609 18.141 0 .28 2.076-1.481 4.613-3.911 2.537-2.431 8.049-6.126 12.25-8.212 7.387-3.667 7.965-3.788 17.637-3.676l10 .117-4-1.862c-2.2-1.024-4.548-1.873-5.219-1.888-.67-.014-.959-.701-.643-1.526.317-.825.078-1.5-.531-1.5s-1.107.45-1.107 1-1.463 1.005-3.25 1.012c-4.148.015-13.417 2.467-15.331 4.055-.807.67-1.753.932-2.102.583s3.022-4.238 7.492-8.642c4.47-4.405 8.029-8.003 7.909-7.996s-2.243 1.167-4.718 2.579m-46.396 5c-.336.875.321 2.899 1.46 4.499 1.716 2.41 2.402 2.731 4.003 1.874 2.275-1.218 2.214-.861.835-4.815-.801-2.298-1.718-3.149-3.393-3.149-1.262 0-2.57.716-2.905 1.591m22.646.14c-1.326.462-1.8 8.28-.5 8.254 1.731-.036 3.04-1.677 3.676-4.608.693-3.194-.511-4.576-3.176-3.646m-8.235 3.446c.02 4.248 1.468 6.74 3.016 5.192 1.736-1.736.788-7.792-1.281-8.184-1.384-.262-1.747.363-1.735 2.992m-18.885.555c-1.253 2.239 1.574 7.268 4.086 7.268 2.187 0 2.278-2.143.258-6.05-1.74-3.365-2.952-3.705-4.344-1.218m13.625-.498c-.522 1.567 2.267 8.766 3.397 8.766.946 0 1.169-1.296.862-5-.333-4.001-3.304-6.629-4.259-3.766m-18.505 4.465c-.687.257-1.25 1.044-1.25 1.749 0 1.986 3.723 6.246 5.971 6.834 1.749.457 1.937.172 1.405-2.127-.75-3.236-4.413-7.098-6.126-6.456M178 118.5c0 1.893 1.085 1.903 3.559.032 1.859-1.406 1.825-1.47-.809-1.5-1.792-.021-2.75.491-2.75 1.468m-71 1.371c0 1.454 7.915 9.727 7.959 8.32.023-.72.491-1.031 1.041-.691 2.21 1.366.799-1.571-2.368-4.929-3.12-3.308-6.632-4.738-6.632-2.7m79.75.291c-1.512.553-2.75 1.417-2.75 1.921 0 1.197.126 1.18 4.378-.596 5.611-2.345 4.233-3.466-1.628-1.325m-84.679 3.252c-.9 1.085-.255 2.128 3.075 4.979 4.959 4.244 7.582 4.879 5.612 1.357-3.299-5.9-6.881-8.512-8.687-6.336m88.495.693c.446.722.031.904-1.191.523-1.031-.321-2.55-.152-3.375.378-1.184.759-.974.962 1 .963 3.505.002 7-1.04 7-2.088 0-.485-.927-.883-2.059-.883-1.251 0-1.79.435-1.375 1.107m.434 4.109c-2.146.934-2.241 1.15-.671 1.525 2.442.582 6.671-.533 6.671-1.76 0-1.263-2.813-1.153-6 .235m-91 1.832c0 1.361 1.09 2.511 3.25 3.428 4.708 1.999 6.125.081 2.25-3.046-3.672-2.962-5.5-3.089-5.5-.382M94 133c0 .584-3.352 1-8.057 1-7.631 0-16.502 1.478-17.378 2.895-.221.357 4.399.56 10.267.452s9.655.025 8.418.297c-2.677.589-2.961 2.055-.5 2.588 1.182.256-.019 1.292-3.704 3.194C77.141 146.473 67 156.109 67 158.672c0 1.071 1.407.285 4.356-2.432 6.273-5.783 8.362-6.674 14.939-6.375 3.187.145 7.115-.322 8.73-1.036l2.936-1.3-3.731-1.16-3.73-1.159 6-.223c4.825-.18 5.412-.364 3-.939l-3-.715 3.784-.784c2.082-.432 6.469-.59 9.75-.353s5.966.313 5.966.169C116 142.002 95.355 132 94.605 132c-.333 0-.605.45-.605 1m89.5 2.014c-1.995 1.33-4.005 1.835-6 1.506l-3-.495 2.783 1.301 2.782 1.301-3.451 4.436c-7.494 9.632-17.518 16.957-30.098 21.994-7.908 3.167-18.807 5.305-19.363 3.8-.209-.564-.809-.579-1.5-.037-.634.496-2.884 1.169-5 1.494-3.689.567-3.821.491-3.231-1.861.784-3.122-.187-3.201-1.362-.111-.746 1.963-1.511 2.303-4.725 2.104-2.109-.13-4.648-.284-5.642-.342-1.666-.096-1.685-.277-.25-2.327 2.576-3.677 1.729-4.524-1.027-1.027-3.483 4.42-4.843 4.109-2.189-.5l2.159-3.75-2.374 2a105 105 0 0 0-4.291 3.848c-1.193 1.15-2.832 1.673-4.343 1.384-1.334-.255-2.667-.074-2.961.402s.167.866 1.024.866c2.287 0 1.983.712-2.469 5.769-2.932 3.331-3.725 4.869-2.914 5.653.805.779 2.137-.1 4.805-3.172 2.03-2.338 4.069-4.25 4.531-4.25s-.816 1.831-2.838 4.069c-3.569 3.951-4.283 6.857-1.882 7.656.646.215 2.392-1.688 3.881-4.229l2.707-4.619 2.862 2.741 2.861 2.742-2.044 3.464c-1.124 1.906-1.81 4.075-1.524 4.821.926 2.412 4.034 1.426 5.99-1.901l1.907-3.244.66 2.5c.525 1.991 1.205 2.441 3.343 2.212 1.872-.201 2.683.177 2.683 1.25 0 .846.45 1.594 1 1.663s1.45.238 2 .375 1.911.306 3.025.375c1.222.075 2.441 1.215 3.074 2.875 1.029 2.693 1.081 2.709 2.538.75 1.317-1.772 1.622-1.824 2.675-.458.98 1.272 2.678 1.429 9.688.897 4.675-.355 9.805-1.002 11.399-1.438 1.923-.526 2.684-.445 2.261.24-.845 1.368 1.94 3.624 3.377 2.736.619-.382.892-1.659.608-2.836-.421-1.742.257-2.502 3.642-4.08 4.65-2.167 17.713-14.678 17.713-16.964 0-1.123.828-1.337 3.5-.903 4.054.658 4.784-1.222 1.595-4.108-1.71-1.548-1.762-1.998-.506-4.405.769-1.475 1.401-3.27 1.405-3.99.003-.72.344-1.1.756-.846s.789-1.181.837-3.19c.341-14.286 1.158-23.3 2.207-24.349.667-.667 1.206-.759 1.206-.206 0 .55-.54 1.54-1.2 2.2-.782.782-.824 1.2-.122 1.2 1.998 0 3.388-2.534 2.098-3.824-1.543-1.543-1.758-1.509-5.276.838m4.072 4.87c-.791 1.279 3.298 3.116 6.934 3.116 2.213 0 4.238-1.589 3.265-2.562-1.128-1.128-9.562-1.586-10.199-.554m2.985 5.096c-1.775.623-1.786.718-.152 1.345 2.485.954 5.595.838 5.595-.208 0-1.26-3.191-1.927-5.443-1.137m-17.614 4.654c-4.884 5.147-16.537 12.594-25.627 16.378-9.325 3.882-19.894 5.906-31.092 5.953l-8.275.035 1.536 2.97c2.354 4.553 4.811 5.381 13.952 4.702 18.827-1.397 36.338-9.373 49.144-22.386 5.268-5.353 6.232-7.457 4.597-10.033-.569-.895-1.764-.222-4.235 2.381M189 151.051c0 .578 1.614 1.726 3.587 2.55 2.926 1.222 3.871 1.263 5.126.222 1.343-1.114 1.172-1.433-1.337-2.505-3.575-1.526-7.376-1.664-7.376-.267m-103.991 1.69c-3.209.388-4.955 1.615-4.994 3.509-.008.412 1.673.802 3.735.866 2.147.066 2.909.329 1.782.615-2.742.696-8.619 5.319-8.012 6.302.612.989 11.488-3.171 15.829-6.055l3.151-2.094-4.5.547-4.5.547 4.81-1.762c7.417-2.716 4.078-3.848-7.301-2.475m103.852 4.292c2.326 1.938 7.139 2.725 7.139 1.168 0-.905-5.895-3.218-8.071-3.168-.939.022-.619.709.932 2M90 162.204c-8.057 3.446-13 6.058-13 6.87 0 2.047 4.03.695 10.586-3.553 6.704-4.342 7.559-5.517 2.414-3.317m5.5.23c-1.1.731-4.646 2.99-7.88 5.018-4.369 2.741-5.589 3.979-4.75 4.818.84.84 1.435.825 2.316-.056.915-.915 1.603-.81 3.006.46 1.001.906 2.155 1.288 2.564.85s.182-.999-.506-1.244c-2.142-.765-1.41-2.184 3.5-6.79 4.826-4.527 5.356-5.452 1.75-3.056m1.941 2.034c-1.067.808-1.434 1.483-.813 1.5.62.018 1.687-.643 2.372-1.468 1.581-1.905.935-1.918-1.559-.032M108 167c-.589 1.1-.845 2-.57 2s.981-.9 1.57-2 .845-2 .57-2-.981.9-1.57 2m4.872.75c-1.243 1.586-1.208 1.621.378.378 1.666-1.307 2.195-2.128 1.372-2.128-.207 0-.995.787-1.75 1.75m69.718-.123c-.372.968.091 2.17 1.143 2.968 2.292 1.74 3.746 1.738 5.192-.005.928-1.118.701-1.739-1.1-3-2.892-2.025-4.448-2.014-5.235.037m-87.084 17.548c-2.712 3.224-2.84 5.131-.376 5.609.832.162 2.415-1.41 3.67-3.642 1.834-3.262 1.96-4.02.75-4.484-.866-.333-2.504.687-4.044 2.517m59.994 2.05c-1.65.587-3.888 1.676-4.973 2.421S147.115 191 145.354 191c-1.911 0-4.339.958-6.027 2.379-1.555 1.308-3.727 2.637-4.827 2.954-1.1.316 1.825.457 6.5.312 6.768-.211 9.717-.822 14.473-3.001 3.285-1.506 6.802-3.488 7.815-4.405 1.775-1.606 1.776-1.693.027-2.383-2.471-.974-4.279-.889-7.815.369m-91.941 28.208c1.556 1.148 1.693 1.684.691 2.7-1.007 1.021-1.25.949-1.25-.371 0-1.021-.753-1.581-2-1.487-1.1.083-2 .45-2 .815 0 1.15 2.653 2.924 3.342 2.235.362-.362.658-.043.658.708 0 1.063.267 1.1 1.2.167 1.603-1.603 2.467-1.514 2.467.256 0 .801-.344 1.243-.765.984-1.493-.923-1.975 1.554-.736 3.789.692 1.249 1.169 2.592 1.058 2.985s.543.429 1.452.08c1.01-.388 1.403-.231 1.012.402-.353.57.238 1.832 1.312 2.804s1.712 2.157 1.417 2.634c-.486.787.941 1.283 2.833.984.412-.065.759.445.77 1.132.052 3.316 28.462 15.244 42.48 17.836 3.592.664 14.046.97 26.053.762l20.054-.348 7.757-3.835c7.662-3.787 7.749-3.873 7.08-7-.381-1.779-.298-2.8.189-2.332.477.459.923 1.246.992 1.75.408 2.996.65 3.163 1.317.917 1-3.366.318-4.282-2.635-3.541-1.774.445-2.265.283-1.736-.573.456-.738.313-.932-.373-.508-.611.377-.829 1.459-.485 2.404.584 1.603.492 1.6-1.372-.032-2.256-1.975-3.815-2.326-2.761-.62.424.685.152.948-.691.667-.764-.255-1.547-1.279-1.74-2.276-.254-1.31.088-1.644 1.235-1.204 1.35.518 1.404.316.361-1.354-1.368-2.19-1.44-2.205-4.245-.872-1.756.834-1.695.893.5.479 2.288-.431 2.348-.357.704.874-2.385 1.785-6.23.894-4.603-1.066.736-.886.773-1.378.105-1.378-.572 0-1.231.563-1.466 1.25-.332.972-1.116.996-3.52.111-2.435-.897-3.663-.844-5.771.25-3.042 1.578-4.715 1.849-2.449.397 1.026-.658.237-.768-2.5-.348-2.2.337-5.012.599-6.25.582s-2.25.427-2.25.986c0 .687-.406.688-1.25.005-1.414-1.145-11.185-1.131-12.333.017-.413.412-1.688.718-2.834.68-2-.068-2.005-.101-.133-.834 1.385-.542.661-.794-2.5-.871-5.184-.126-7.617-.559-8.588-1.529-.382-.383-1.858-.701-3.279-.707s-4.822-.69-7.559-1.52-5.573-1.28-6.302-1.001-1.08.111-.78-.375-.149-1.15-1-1.477c-.885-.34-1.285-.171-.935.395 1.035 1.675-.4 1.096-2.507-1.011-1.688-1.688-5.224-2.596-8.25-2.118-.412.065-.75-.38-.75-.989s-.623-.868-1.385-.575c-.762.292-2.675-.825-4.25-2.483-1.576-1.657-4.071-3.643-5.544-4.413-1.474-.77-2.966-2.305-3.318-3.411S64.135 214 63.241 214c-1.35 0-1.297.241.318 1.433M61 222c0 .55.477 1 1.059 1s.781-.45.441-1-.816-1-1.059-1-.441.45-.441 1m16.352.76c.363.588.095 1.297-.596 1.576-.899.362-.917.529-.065.585 1.721.114 2.548-1.656 1.171-2.506-.698-.432-.904-.292-.51.345M66.1 224.705c.729 1.212 1.54 1.989 1.803 1.726s-.333-1.255-1.324-2.205c-1.722-1.649-1.744-1.628-.479.479m98.914 9.709c.648.648 1.324.648 1.972 0 .647-.647.309-.985-.986-.985s-1.633.338-.986.985M155 237c0 .55.477 1 1.059 1s.781-.45.441-1-.816-1-1.059-1-.441.45-.441 1m20.603.167c.283.458.938.833 1.456.833s.941-.375.941-.833c0-.459-.655-.834-1.456-.834s-1.224.375-.941.834M116 239c0 .55.477 1 1.059 1s.781-.45.441-1-.816-1-1.059-1-.441.45-.441 1m10-.167c0 .459.655.834 1.456.834s1.224-.375.941-.834-.938-.833-1.456-.833-.941.375-.941.833m33-.046c0 .433 1.007.863 2.237.956 1.759.132 1.919-.033.75-.772-1.828-1.156-2.987-1.227-2.987-.184m-8.381 1.092c.485.408 2.231 1.273 3.881 1.923l3 1.182-2.384-1.703c-2.318-1.656-6.259-2.884-4.497-1.402m-4.619 2.21c-2.154 1.762-2.196 1.897-.306.973 1.207-.59 2.471-1.52 2.809-2.067.903-1.461.297-1.196-2.503 1.094"/></svg>