<svg xmlns="http://www.w3.org/2000/svg" width="256" height="256"><path fill="#1976D2" fill-opacity=".016" fill-rule="evenodd" d="M0 128.004v128.004l128.25-.254 128.25-.254.254-127.75L257.008 0H0zm.485.496c0 70.4.119 99.053.265 63.672s.146-92.98 0-128S.485 58.1.485 128.5"/><path fill="#1976D2" fill-opacity=".295" fill-rule="evenodd" d="M92.594 1.645c-7.327 2.25-15.852 11.091-17.56 18.215-3.739 15.585 6.583 31.939 23.716 37.574 3.152 1.037 5.25 2.311 5.25 3.189 0 .804-1.8 9.579-4 19.499-2.2 9.921-4 18.935-4 20.032 0 1.146-2.394 4.181-5.631 7.14-10.527 9.621-19.398 24.498-23.48 39.379-2.967 10.816-2.35 26.78 1.413 36.552 5.63 14.619 15.873 25.748 30.386 33.012 12.099 6.056 21.832 8.212 33.727 7.471 16.164-1.007 29.436-6.865 40.781-17.999 11.173-10.966 16.657-21.789 19.467-38.42 3.524-20.86-3.245-45.445-16.656-60.492-4.011-4.5-4.573-5.581-3.313-6.376 1.347-.849 1.289-2.411-.519-13.939-3.639-23.199-3.686-23.901-1.54-23.007 1.026.427 5.297 1 9.492 1.272 9.481.616 16.444-1.464 22.165-6.623 5.361-4.832 7.659-10.143 7.686-17.76.056-15.617-13.246-26.387-33.152-26.841-6.147-.14-6.985-.434-10.619-3.717-9.484-8.568-23.337-10.052-35.135-3.763-5.082 2.708-6.564 3.112-7.913 2.155C116.81 3.694 106.408-.032 100.5.082c-1.65.031-5.208.735-7.906 1.563M92.5 8.163c-5.806 3.012-7.506 4.746-10.132 10.337-4.072 8.669-2.816 15.678 4.201 23.445 4.356 4.822 10.166 8.426 16.099 9.99 3.541.933 5.001.786 9.702-.972 3.043-1.139 7.759-4.071 10.479-6.517 5.563-5.001 8.151-5.669 8.151-2.102 0 3.299-7.382 10.284-12.935 12.24-9.229 3.251-8.723 2.76-9.356 9.078-.322 3.211-1.311 11.178-2.198 17.704s-1.477 11.995-1.312 12.152 4.281-1.049 9.146-2.681c16.968-5.69 34.016-6.041 45.908-.943l4.611 1.977-.494-14.686c-.63-18.759-.637-18.788-4.47-19.555-6.484-1.297-20.877-14.641-19.543-18.119 1.002-2.611 3.771-1.665 8.746 2.989 2.646 2.475 5.452 4.5 6.235 4.5s2.626-1.575 4.094-3.5c5.097-6.683 7.731-3.147 2.924 3.926-2.528 3.721-2.563 3.949-.809 5.232 1.01.738 2.804 1.342 3.988 1.342 2.707 0 11.756-3.088 17.223-5.877 5.248-2.677 7.242-2.699 7.242-.079 0 1.576-1.819 2.891-7.955 5.75-4.375 2.038-7.975 4.096-8 4.572-.089 1.715 12.426.078 17.232-2.254 6.968-3.379 10.056-7.923 10.521-15.482.318-5.173.009-6.673-1.984-9.606-1.299-1.912-3.828-4.465-5.621-5.673-3.19-2.15-17.681-6.196-18.665-5.212-.274.274.022 2.979.658 6.012 1.317 6.281.724 8.849-2.043 8.849-1.421 0-2.1-.957-2.611-3.679C169.008 17.865 158.502 9.044 145 9.044c-7.187 0-12.203 1.823-19.567 7.111-3.49 2.507-4.733 2.945-5.676 2.002s-.94-1.635.014-3.162c1.049-1.68.88-2.178-1.206-3.545-8.297-5.436-19.257-6.818-26.065-3.287m-14.998 51.3C51.222 73.161 31.181 98.065 23.957 126c-2.757 10.665-3.664 28.688-2.018 40.131 7.011 48.745 47.175 85.333 98.061 89.33 10.315.81 27.021-.775 37.081-3.518 9.771-2.664 27.761-11.584 36.012-17.856 7.457-5.668 18.106-16.61 22.786-23.411 5.514-8.015 12.243-22.721 14.913-32.595 2.303-8.516 2.594-11.471 2.617-26.581.023-14.647-.291-18.176-2.269-25.5-4.972-18.412-14.829-34.718-29.327-48.515L192.897 69h-19.173l.687 6.75c1.034 10.161 1.249 10.592 8.168 16.315 19.482 16.116 30.824 42.724 29.091 68.245-2.431 35.793-27.942 65.792-63.607 74.797-11.481 2.899-33.815 2.351-44.563-1.093-27.506-8.815-48.964-30.282-57.489-57.514-2.759-8.814-3.747-25.453-2.079-35.029 4.678-26.862 21.463-49.026 46.857-61.869 5.728-2.897 6.732-4.514 7.798-12.546.58-4.376.425-5.093-1.21-5.576-1.033-.305-4.015-1.663-6.628-3.017C88.137 57.108 85.582 56 85.072 56s-3.916 1.558-7.57 3.463m74.997 22.539c-.667 1.079 2.054 2.327 7.251 3.324 2.499.48 3.25.278 3.25-.876 0-2.666-9.061-4.778-10.501-2.448m-42.557 15.826c-6.781 2.488-13.171 6.576-17.133 10.962-8.965 9.923-17.538 25.719-20.287 37.378-1.934 8.205-1.93 21.846.009 29.29C74.127 181.586 79.69 193 81.08 193c1.961 0 1.701-2.212-.958-8.136-4.259-9.493-5.608-16.237-5.471-27.364.152-12.347 2.704-20.308 10.93-34.092 7.233-12.123 12.378-17.21 22.66-22.407 4.543-2.296 8.447-4.361 8.676-4.588.901-.893-2.645-.174-6.975 1.415m40.235 55.209c-8.479 3.012-24.24 4.409-34.438 3.051-4.737-.63-10.669-1.764-13.181-2.521-4.462-1.342-4.582-1.32-5.15.945-.901 3.588 2.325 9.123 7.199 12.351 13.894 9.203 37.606 7.606 48.987-3.299 3.829-3.668 4.406-4.767 4.406-8.393 0-4.772-.225-4.833-7.823-2.134"/><path fill="#1976D2" fill-opacity=".57" fill-rule="evenodd" d="M89.653 3.437C79.437 8.442 75 15.462 75 26.619c0 9.105 3.03 15.342 11.069 22.785 4.397 4.07 7.427 5.946 11.684 7.232 3.161.955 6.091 2.019 6.511 2.364s-1.35 10.274-3.932 22.064L95.637 102.5l-7.068 7.13c-10.946 11.041-18.872 25.912-22.246 41.735-3.09 14.498.195 31.339 8.512 43.635 6.088 9.001 8.648 11.594 16.387 16.602 12.757 8.254 24.186 11.803 37.778 11.731 17.704-.094 32.045-6.177 44.699-18.958 9.508-9.605 15.009-19.693 17.84-32.723 2.049-9.429 1.583-26.861-.965-36.072-2.585-9.347-8.876-21.551-14.452-28.037-5.436-6.322-5.843-7.136-3.889-7.787.95-.317.719-3.955-1.006-15.834-1.232-8.482-2.237-16.9-2.233-18.707.005-2.914.22-3.171 1.901-2.271 3.322 1.778 12.486 2.326 18.39 1.101 11.636-2.416 19.285-10.478 20.426-21.531 1.667-16.159-12.731-28.462-33.355-28.502-5.511-.011-6.49-.337-9.5-3.168-5.729-5.388-13.317-8.334-21.356-8.293-6.115.032-7.88.504-13.955 3.736l-6.956 3.7-3.667-2.541C111.203.711 98.533-.913 89.653 3.437m7.341 2.446C86.132 9.409 80 17.31 80 27.779c0 4.901.516 6.657 3.101 10.56 1.706 2.575 4.744 6.037 6.75 7.692C93.602 49.124 102.582 53 106 53c4.091 0 12.73-4.163 17.738-8.548C128.743 40.07 131 39.47 131 42.524 131 46.667 118.03 56 112.272 56c-1.284 0-2.54.562-2.791 1.25-.804 2.205-5.193 36.222-4.772 36.996.222.411 1.783.034 3.469-.838s7.343-2.67 12.571-3.996c13.123-3.329 26.939-3.319 36.751.026 3.85 1.313 7.17 2.219 7.377 2.014s-.018-7.922-.5-17.149l-.877-16.777-3.633-.587C154.007 55.993 141 44.313 141 39.997c0-2.967 1.789-2.446 6.494 1.891 2.32 2.138 5.176 4.4 6.348 5.027 2.258 1.209 2.076 1.336 7.033-4.915 1.494-1.883 2.27-2.218 3.147-1.357 1.35 1.326.09 4.363-3.397 8.188-2.119 2.324-2.12 2.334-.125 3.829 3.155 2.364 10.885 1.196 19.931-3.01 5.16-2.398 8.273-3.346 8.908-2.711 1.534 1.534-.521 3.279-8.276 7.03-3.885 1.88-7.063 3.772-7.063 4.205 0 1.576 4.966 1.975 10.439.839 18.557-3.853 24.418-24.035 9.874-34.001-3.065-2.1-18.978-6.681-19.923-5.735-.22.219.081 1.776.668 3.459 1.35 3.874.84 11.478-.807 12.019-1.332.438-1.393.307-3.286-7.015-1.458-5.64-7.252-12.652-13.461-16.291-8.774-5.141-20.151-3.977-30.464 3.117-5.674 3.903-8.978 4.055-6.98.322 1.35-2.522.992-2.859-6.914-6.493-5.973-2.746-12.367-3.741-16.152-2.512M76.5 60.787c-11.23 5.99-16.43 9.93-26 19.701-13.844 14.135-22.994 31.067-27.026 50.012-2.198 10.326-2.27 31.322-.141 41.016 10.385 47.279 49.558 80.778 97.252 83.167 22.023 1.103 40.394-2.744 58.158-12.178 31.184-16.561 50.832-46.084 54.243-81.505 2.926-30.381-7.717-59.699-29.624-81.606-9.536-9.535-10.884-10.148-21.168-9.611l-8.305.434.517 2.641c.285 1.453.821 4.846 1.192 7.54.631 4.59 1.346 5.567 11.353 15.5 9.614 9.544 11.199 11.65 15.886 21.102 6.965 14.045 9.163 23.159 9.163 38 0 28.244-13.198 53.069-36.377 68.423-16.11 10.671-27.38 13.987-47.623 14.013-16.757.021-24.646-1.722-37.854-8.363-43.648-21.945-60.301-72.507-37.54-113.977 7.768-14.154 21.355-27.276 36.102-34.868 7.043-3.625 7.234-3.825 8.337-8.719.621-2.755 1.335-5.764 1.587-6.687.341-1.253-1.171-2.454-5.981-4.75-3.54-1.689-7.048-3.06-7.794-3.046s-4.507 1.707-8.357 3.761m77.043 21.144c-.787 1.273.424 1.88 5.302 2.66 5.32.851 5.629-1.088.405-2.538-4.606-1.28-4.987-1.288-5.707-.122M118.638 95.1c-11.986 1.75-22.176 7.948-30.059 18.283-19.03 24.948-23.35 50.232-12.407 72.617 6.977 14.272 19.758 24.307 36.288 28.491 6.42 1.625 16.498 1.843 20.54.445 1.94-.672 1.604-.757-1.5-.381-2.848.345-5.728-.235-10-2.012l-6-2.496 6.568-.023c12.484-.045 26.776-6.093 41.381-17.509 11.155-8.721 10.972-6.738-.418 4.515-4.781 4.723-10.126 8.838-14.275 10.989-3.647 1.891-6.466 3.604-6.264 3.806.932.932 13.036-6.611 18.406-11.471 6.383-5.776 12.162-12.56 12.467-14.633.102-.696 1.467-2.946 3.034-5 3.614-4.737 8.583-23.548 8.594-32.528.01-8.782-1.449-14.127-7.032-25.776-3.915-8.167-5.978-11.143-10.854-15.657-12.178-11.275-26.883-14.812-48.469-11.66m-21.756 35.782c-2.251 2.252-3.882 4.846-3.882 6.175v2.292l2.25-2.058c5.734-5.243 13.967-6.782 19.893-3.717 4.536 2.346 4.853.727.618-3.154-3.324-3.047-4.346-3.42-9.364-3.42-5.209 0-5.924.292-9.515 3.882m47.334-1.873c-5.676 3.462-5.803 7.38-.143 4.453 4.867-2.517 11.961-1.528 17.612 2.455 2.494 1.758 4.7 3.032 4.901 2.83.922-.921-3.623-7.475-6.585-9.497-4.262-2.909-11.234-3.015-15.785-.241m14.285 18.06c-12.904 4.793-21.967 6.221-36.369 5.729-11.368-.389-13.711-.805-23.41-4.157-10.924-3.775-15.506-4.006-9.972-.502 2.597 1.644 3.04 2.613 3.496 7.635 1.019 11.24 8.376 21.447 19.314 26.799 5.217 2.553 6.919 2.874 14.915 2.812 11.664-.089 18.913-2.748 26.147-9.589 6.058-5.729 9.371-12.622 10.139-21.097.489-5.392.784-5.993 3.387-6.901 2.811-.979 4.035-3.844 1.602-3.749-.687.026-4.85 1.385-9.249 3.02m-10.001 6.119c-8.866 2.938-29.392 3.63-40 1.349-11.685-2.513-11.013-2.651-10.912 2.239.068 3.278.762 4.98 2.97 7.284 11.921 12.444 41.097 12.218 53.73-.415 3.523-3.522 5.65-9.318 4.252-11.58-.895-1.448-2.987-1.214-10.04 1.123m-38.041 23.879c-.935 1.513-.332 1.882 5.688 3.484 6.164 1.641 18.44 1.926 19.353.449.34-.55-.226-1-1.259-1s-5.221-.889-9.309-1.976c-8.314-2.211-13.487-2.553-14.473-.957"/><path fill="#1976D2" fill-opacity=".79" fill-rule="evenodd" d="M92.086 2.656C86.07 4.864 77.505 13.354 76.102 18.5c-4.324 15.855 6.35 33.559 23.028 38.196 4.319 1.201 5.87 2.097 5.87 3.392 0 1.824-2.647 14.36-6.044 28.626C97.88 93.231 97 98.129 97 99.596c0 1.999-1.584 4.12-6.309 8.45-10.579 9.694-19.249 24.481-23.162 39.505-1.905 7.312-1.971 23.262-.124 29.949 4.725 17.112 15.902 30.567 31.771 38.246 10.537 5.099 19.295 7.254 29.478 7.254 28.932 0 53.343-18.868 61.501-47.535 2.896-10.177 3.09-27.389.429-37.965-2.556-10.154-9.591-24.065-15.507-30.66-5.545-6.182-5.876-6.84-3.445-6.84 1.319 0 1.523-.717 1.064-3.75-3.075-20.318-4.763-33.517-4.341-33.939.281-.281 2.172.038 4.203.708 5.491 1.812 18.987.823 23.942-1.755 8.277-4.306 12.772-11.788 12.811-21.322.059-14.566-13.185-25.07-32.085-25.45-6.668-.133-7.542-.402-10.5-3.231C160.641 5.44 155.46 3.5 146 3.5c-8.481 0-11.065.776-18.93 5.688-1.68 1.05-2.411 1.055-3.823.03-.961-.697-4.584-2.66-8.051-4.362-7.746-3.803-16.478-4.634-23.11-2.2m-.348 4.916c-8.367 4.355-13.623 14.043-12.322 22.715 1.241 8.277 10.099 17.867 19.6 21.218 8.851 3.124 15.793 1.163 25.056-7.076 5.125-4.559 5.447-4.699 5.763-2.514.646 4.474-8.9 12.069-17.106 13.608-4.15.779-3.694-.553-6.16 17.977-3.063 23.026-3.012 21.863-.933 21.181 1.025-.336 5.096-1.723 9.047-3.082 9.442-3.247 21.865-4.998 30.699-4.327 6.113.464 10.426 1.653 18.806 5.183 1.552.654 1.649-.48 1.199-14.122-.681-20.631-.823-21.333-4.322-21.333C156.181 57 141 44.233 141 40.126c0-2.662 2.394-1.75 7.466 2.843 3.055 2.767 6.113 5.038 6.795 5.046s2.913-1.904 4.959-4.25c3.012-3.453 3.726-3.881 3.75-2.247.017 1.11-1.095 3.673-2.47 5.697-3.252 4.786-3.166 5.41.935 6.764 4.081 1.347 8.752.313 18.453-4.084 7.191-3.259 8.112-3.44 8.112-1.595 0 .715-3.606 3.058-8.014 5.207s-7.86 4.377-7.672 4.95c.59 1.797 9.77 1.78 14.628-.028C197.48 54.88 203 48.127 203 40.008c0-11.227-8.217-18.118-24.518-20.563l-4.619-.693.795 3.874c1.781 8.678.124 16.013-2.004 8.874C168.18 16.497 158.606 8.065 146 8.028c-8.602-.026-13.935 2.104-23.629 9.437-1.881 1.423-2.98-.259-1.607-2.459 1.018-1.63.786-2.19-1.619-3.903-4.649-3.31-12.927-6.106-17.932-6.056-2.994.029-6.45.95-9.475 2.525M154.5 82.934c1.1.443 3.575 1.111 5.5 1.483 3.285.636 3.381.582 1.559-.87-1.068-.851-3.543-1.518-5.5-1.484-2.823.051-3.145.231-1.559.871M124 94.1c-18.766 2.046-28.766 8.224-39.555 24.439-10.307 15.491-14.395 27.673-14.428 43.001-.04 18.508 8.221 34.793 22.492 44.338 13.703 9.165 27.924 12.596 40.465 9.764 11.927-2.693 21.428-8.013 30.585-17.124 12.759-12.695 16.713-20.073 20.641-38.518 3.268-15.346.655-28.307-8.795-43.631C164.527 98.733 147.834 91.501 124 94.1m-23.73 34.328c-2.892 1.306-7.257 6.677-7.266 8.941-.002.477 1.528-.3 3.401-1.729 1.873-1.428 5.481-3.152 8.018-3.831 4.578-1.224 4.991-1.164 11.963 1.727 2.709 1.123 1.66-1.412-1.585-3.835-3.369-2.516-10.413-3.133-14.531-1.273m46.23-.025c-3.048 1.345-7.559 5.609-5.905 5.582.498-.008 2.705-.653 4.905-1.432 2.2-.78 4.9-1.251 6-1.048 6.225 1.15 7.783 1.805 10.982 4.613 4.316 3.79 4.868 1.64.815-3.177-4.595-5.461-10.868-7.156-16.797-4.538M87 145.943c0 .519 1.35 1.741 3 2.716 2.713 1.602 3 2.263 3 6.897 0 10.122 8.308 21.919 18.878 26.807 3.795 1.754 6.505 2.137 15.143 2.137 9.882 0 10.928-.201 17.224-3.3 10.927-5.379 17.691-15.488 17.733-26.501.022-5.736.064-5.82 3.772-7.452 6.463-2.845.385-2.724-6.646.132-20.502 8.331-45.296 8.331-65.324 0-6.442-2.679-6.78-2.751-6.78-1.436m63.401 6.122c-12.015 4.288-30.153 4.835-45.396 1.368-8.224-1.87-9.491-1.257-8.372 4.052.939 4.455 3.014 7.083 8.198 10.381 14.832 9.438 37.392 7.672 49.36-3.863 4.618-4.451 4.916-5.039 4.622-9.122-.368-5.133-1.169-5.401-8.412-2.816m-39.151 23.966c-3.426 1.377-2.724 2.62 2.483 4.394 8.457 2.881 22.267 3.303 22.267.679 0-.628-20.85-6.306-22.182-6.041-.175.035-1.331.471-2.568.968"/></svg>